<?xml version="1.0" encoding="UTF-8"?>
<svg xmlns="http://www.w3.org/2000/svg" viewBox="0 0 1024 1024" width="1024" height="1024">

<defs>
  <filter id="paper" x="0" y="0" width="100%" height="100%">
    <feTurbulence type="fractalNoise" baseFrequency="0.9" numOctaves="2" seed="3"/>
    <feColorMatrix values="0 0 0 0 0.4  0 0 0 0 0.3  0 0 0 0 0.15  0 0 0 0.08 0"/>
    <feComposite in2="SourceGraphic" operator="in"/>
    <feComposite in="SourceGraphic" operator="over"/>
  </filter>
  <filter id="torn" x="-5%" y="-5%" width="110%" height="110%">
    <feTurbulence type="fractalNoise" baseFrequency="0.02" numOctaves="2" seed="5"/>
    <feDisplacementMap in="SourceGraphic" scale="8"/>
  </filter>
  <filter id="shadow" x="-20%" y="-20%" width="140%" height="140%">
    <feGaussianBlur in="SourceAlpha" stdDeviation="6"/>
    <feOffset dx="0" dy="4"/>
    <feComponentTransfer><feFuncA type="linear" slope="0.35"/></feComponentTransfer>
    <feMerge><feMergeNode/><feMergeNode in="SourceGraphic"/></feMerge>
  </filter>
  <clipPath id="mask">
    <rect x="0" y="0" width="1024" height="1024" rx="230" ry="230"/>
  </clipPath>
</defs>

<g clip-path="url(#mask)">
  <rect x="0" y="0" width="1024" height="1024" fill="#F5EBD3"/>
  
    <path d="M 512 240 Q 260 300 260 560 Q 260 820 512 900 Q 764 820 764 560 Q 764 300 512 240 Z" fill="#C80306"/>
    <g fill="#F8D34A">
      <circle cx="380" cy="480" r="14"/><circle cx="460" cy="560" r="14"/><circle cx="560" cy="500" r="14"/>
      <circle cx="640" cy="600" r="14"/><circle cx="420" cy="680" r="14"/><circle cx="580" cy="720" r="14"/>
      <circle cx="500" cy="620" r="14"/><circle cx="360" cy="600" r="14"/><circle cx="660" cy="480" r="14"/>
    </g>
    <path d="M 400 260 Q 440 180 480 240 Q 512 160 544 240 Q 584 180 624 260 Z" fill="#6B6A4E"/>
    <text x="512" y="620" font-family="Georgia, serif" font-weight="900" font-size="320" fill="#F5EBD3" text-anchor="middle" opacity="0.9">K</text>
    
</g>
</svg>