<svg xmlns="http://www.w3.org/2000/svg" viewBox="0 0 1024 1024" width="1024" height="1024">
  <defs>
    <filter id="ts" x="-10%" y="-10%" width="120%" height="120%">
      <feTurbulence type="fractalNoise" baseFrequency="0.9" numOctaves="2" seed="7" result="n"/>
      <feDisplacementMap in="SourceGraphic" in2="n" scale="6"/>
    </filter>
    <filter id="tm" x="-10%" y="-10%" width="120%" height="120%">
      <feTurbulence type="fractalNoise" baseFrequency="0.6" numOctaves="2" seed="12" result="n"/>
      <feDisplacementMap in="SourceGraphic" in2="n" scale="4"/>
    </filter>
    <filter id="tf" x="-10%" y="-10%" width="120%" height="120%">
      <feTurbulence type="fractalNoise" baseFrequency="0.4" numOctaves="2" seed="3" result="n"/>
      <feDisplacementMap in="SourceGraphic" in2="n" scale="3"/>
    </filter>
    <filter id="tx" x="-10%" y="-10%" width="120%" height="120%">
      <feTurbulence type="fractalNoise" baseFrequency="1.2" numOctaves="3" seed="21" result="n"/>
      <feDisplacementMap in="SourceGraphic" in2="n" scale="8"/>
    </filter>
    <clipPath id="ios">
      <rect x="0" y="0" width="1024" height="1024" rx="230" ry="230"/>
    </clipPath>
    <pattern id="dots" x="0" y="0" width="60" height="60" patternUnits="userSpaceOnUse">
      <circle cx="30" cy="30" r="1.5" fill="#652300" opacity="0.15"/>
    </pattern>
  </defs>
  <g clip-path="url(#ios)">
    <rect x="0" y="0" width="1024" height="1024" fill="#F5EBD3"/>
    <rect x="0" y="0" width="1024" height="1024" fill="url(#dots)"/>
    <!-- Paper texture speckles -->
    <g opacity="0.1">
      <circle cx="180" cy="220" r="4" fill="#652300"/>
      <circle cx="820" cy="140" r="3" fill="#652300"/>
      <circle cx="740" cy="880" r="5" fill="#652300"/>
      <circle cx="200" cy="820" r="3" fill="#652300"/>
      <circle cx="500" cy="500" r="2" fill="#652300"/>
      <circle cx="360" cy="620" r="4" fill="#652300"/>
      <circle cx="640" cy="380" r="3" fill="#652300"/>
      <circle cx="120" cy="460" r="3" fill="#652300"/>
      <circle cx="900" cy="500" r="4" fill="#652300"/>
      <circle cx="440" cy="180" r="3" fill="#652300"/>
      <circle cx="580" cy="920" r="4" fill="#652300"/>
    </g>
    <!-- Corner confetti shreds - torn paper corners -->
    <g filter="url(#tx)" opacity="0.5">
      <polygon points="60,60 140,80 100,140 40,120" fill="#C80306"/>
      <polygon points="880,60 960,90 920,160 850,130" fill="#284EA9"/>
      <polygon points="60,880 140,860 130,940 50,960" fill="#F8D34A"/>
      <polygon points="880,880 960,900 940,970 860,950" fill="#C14F94"/>
    </g>
    <g filter="url(#tf)" opacity="0.35">
      <circle cx="90" cy="500" r="18" fill="#6B6A4E"/>
      <circle cx="940" cy="620" r="14" fill="#C80306"/>
      <circle cx="150" cy="700" r="12" fill="#284EA9"/>
      <circle cx="880" cy="360" r="16" fill="#F8D34A"/>
    </g>
    <!-- Scattered mini paper triangles for wabi collage feel -->
    <g filter="url(#tx)" opacity="0.28">
      <polygon points="240,140 280,150 260,190" fill="#C14F94"/>
      <polygon points="780,780 820,790 800,830" fill="#652300"/>
      <polygon points="180,380 220,390 200,430" fill="#F8D34A"/>
      <polygon points="820,480 860,490 840,530" fill="#6B6A4E"/>
      <polygon points="440,80 480,90 460,130" fill="#C80306"/>
      <polygon points="560,940 600,950 580,990" fill="#284EA9"/>
    </g>
    <!-- Faint torn horizontal band mid-height for collage layer -->
    <g filter="url(#tx)" opacity="0.12">
      <rect x="0" y="920" width="1024" height="30" fill="#652300"/>
      <rect x="0" y="80" width="1024" height="22" fill="#652300"/>
    </g>
    <g filter="url(#ts)"><circle cx="512" cy="360" r="80" fill="#F8D34A"/></g>
    <g filter="url(#tf)" stroke="#F8D34A" stroke-width="16" fill="none">
      <line x1="612.0" y1="360.0" x2="652.0" y2="360.0"/>
      <line x1="582.7" y1="430.7" x2="611.0" y2="459.0"/>
      <line x1="512.0" y1="460.0" x2="512.0" y2="500.0"/>
      <line x1="441.3" y1="430.7" x2="413.0" y2="459.0"/>
      <line x1="412.0" y1="360.0" x2="372.0" y2="360.0"/>
      <line x1="441.3" y1="289.3" x2="413.0" y2="261.0"/>
      <line x1="512.0" y1="260.0" x2="512.0" y2="220.0"/>
      <line x1="582.7" y1="289.3" x2="611.0" y2="261.0"/>
    </g>
    <g filter="url(#ts)" opacity="0.35" transform="translate(8 12)">
      <path d="M 120 500 Q 100 460 140 440 L 260 440 Q 320 380 340 440 Q 360 380 380 440 Q 400 380 420 440 L 420 620 Q 400 700 320 700 L 200 700 Q 120 700 120 620 Z" fill="#2A1A0A"/>
    </g>
    <g filter="url(#ts)">
      <path d="M 120 500 Q 100 460 140 440 L 260 440 Q 320 380 340 440 Q 360 380 380 440 Q 400 380 420 440 L 420 620 Q 400 700 320 700 L 200 700 Q 120 700 120 620 Z" fill="#C14F94"/>
    </g>
    <g filter="url(#ts)" opacity="0.35" transform="translate(8 12)">
      <path d="M 904 500 Q 924 460 884 440 L 764 440 Q 704 380 684 440 Q 664 380 644 440 Q 624 380 604 440 L 604 620 Q 624 700 704 700 L 824 700 Q 904 700 904 620 Z" fill="#2A1A0A"/>
    </g>
    <g filter="url(#ts)">
      <path d="M 904 500 Q 924 460 884 440 L 764 440 Q 704 380 684 440 Q 664 380 644 440 Q 624 380 604 440 L 604 620 Q 624 700 704 700 L 824 700 Q 904 700 904 620 Z" fill="#C80306"/>
    </g>
    <g filter="url(#ts)">
      <rect x="180" y="700" width="200" height="240" fill="#652300"/>
      <rect x="644" y="700" width="200" height="240" fill="#652300"/>
    </g>
    <g filter="url(#tf)" opacity="0.5"><ellipse cx="270" cy="560" rx="60" ry="40" fill="#F5EBD3"/><ellipse cx="754" cy="560" rx="60" ry="40" fill="#F5EBD3"/></g>
  </g>
</svg>
