<?xml version="1.0" encoding="UTF-8"?>
<svg xmlns="http://www.w3.org/2000/svg" viewBox="0 0 1024 1024" width="1024" height="1024">

<defs>
  <filter id="paper" x="0" y="0" width="100%" height="100%">
    <feTurbulence type="fractalNoise" baseFrequency="0.9" numOctaves="2" seed="3"/>
    <feColorMatrix values="0 0 0 0 0.4  0 0 0 0 0.3  0 0 0 0 0.15  0 0 0 0.08 0"/>
    <feComposite in2="SourceGraphic" operator="in"/>
    <feComposite in="SourceGraphic" operator="over"/>
  </filter>
  <filter id="torn" x="-5%" y="-5%" width="110%" height="110%">
    <feTurbulence type="fractalNoise" baseFrequency="0.02" numOctaves="2" seed="5"/>
    <feDisplacementMap in="SourceGraphic" scale="8"/>
  </filter>
  <filter id="shadow" x="-20%" y="-20%" width="140%" height="140%">
    <feGaussianBlur in="SourceAlpha" stdDeviation="6"/>
    <feOffset dx="0" dy="4"/>
    <feComponentTransfer><feFuncA type="linear" slope="0.35"/></feComponentTransfer>
    <feMerge><feMergeNode/><feMergeNode in="SourceGraphic"/></feMerge>
  </filter>
  <clipPath id="mask">
    <rect x="0" y="0" width="1024" height="1024" rx="230" ry="230"/>
  </clipPath>
</defs>

<g clip-path="url(#mask)">
  <rect x="0" y="0" width="1024" height="1024" fill="#E8D9B8"/>
  
    <g filter="url(#torn)">
      <polygon points="140,300 512,380 512,880 140,780" fill="#F5EBD3" stroke="#1a1a1a" stroke-width="8"/>
      <polygon points="512,380 884,300 884,780 512,880" fill="#DDCEA9" stroke="#1a1a1a" stroke-width="8"/>
    </g>
    <g stroke="#C80306" stroke-width="20" stroke-linecap="round">
      <line x1="380" y1="160" x2="380" y2="240"/>
      <line x1="460" y1="120" x2="460" y2="280"/>
      <line x1="540" y1="100" x2="540" y2="300"/>
      <line x1="620" y1="140" x2="620" y2="260"/>
      <line x1="700" y1="170" x2="700" y2="230"/>
    </g>
    
</g>
</svg>