<?xml version="1.0" encoding="UTF-8"?>
<svg xmlns="http://www.w3.org/2000/svg" viewBox="0 0 1024 1024" width="1024" height="1024">

<defs>
  <filter id="paper" x="0" y="0" width="100%" height="100%">
    <feTurbulence type="fractalNoise" baseFrequency="0.9" numOctaves="2" seed="3"/>
    <feColorMatrix values="0 0 0 0 0.4  0 0 0 0 0.3  0 0 0 0 0.15  0 0 0 0.08 0"/>
    <feComposite in2="SourceGraphic" operator="in"/>
    <feComposite in="SourceGraphic" operator="over"/>
  </filter>
  <filter id="torn" x="-5%" y="-5%" width="110%" height="110%">
    <feTurbulence type="fractalNoise" baseFrequency="0.02" numOctaves="2" seed="5"/>
    <feDisplacementMap in="SourceGraphic" scale="8"/>
  </filter>
  <filter id="shadow" x="-20%" y="-20%" width="140%" height="140%">
    <feGaussianBlur in="SourceAlpha" stdDeviation="6"/>
    <feOffset dx="0" dy="4"/>
    <feComponentTransfer><feFuncA type="linear" slope="0.35"/></feComponentTransfer>
    <feMerge><feMergeNode/><feMergeNode in="SourceGraphic"/></feMerge>
  </filter>
  <clipPath id="mask">
    <rect x="0" y="0" width="1024" height="1024" rx="230" ry="230"/>
  </clipPath>
</defs>

<g clip-path="url(#mask)">
  <rect x="0" y="0" width="1024" height="1024" fill="#E8D9B8"/>
  
    <path d="M 512 512 m -60 0 a 60 60 0 1 1 120 0 a 120 120 0 1 1 -240 0 a 180 180 0 1 1 360 0 a 240 240 0 1 1 -480 0 a 300 300 0 1 1 600 0" fill="none" stroke="#C80306" stroke-width="30" stroke-linecap="round"/>
    <circle cx="512" cy="512" r="20" fill="#284EA9"/>
    
</g>
</svg>